<svg xmlns="http://www.w3.org/2000/svg" xmlns:xlink="http://www.w3.org/1999/xlink" width="514" height="512" viewBox="0 0 514 512" fill="none"><defs><linearGradient id="linear_0" x1="96.37%" y1="96.011%" x2="2.8400000000000003%" y2="0%" gradientUnits="objectBoundingBox"><stop offset="0" stop-color="#00BAAD" stop-opacity="1" /><stop offset="1" stop-color="#43CF7C" stop-opacity="1" /></linearGradient><filter id="filter_2" x="60.5" y="54" width="387" height="204" filterUnits="userSpaceOnUse" color-interpolation-filters="sRGB"><feFlood flood-opacity="0" result="BackgroundImageFix"/>
          <feColorMatrix in="SourceAlpha" type="matrix" values="0 0 0 0 0 0 0 0 0 0 0 0 0 0 0 0 0 0 127 0"/>
          <feOffset dx="0" dy="0"/>
          <feGaussianBlur stdDeviation="1"/>
          <feColorMatrix type="matrix" values="0 0 0 0 0 0 0 0 0 0 0 0 0 0 0 0 0 0 0.5 0"/>
          <feBlend mode="normal" in2="BackgroundImageFix" result="effect1_Shadow"/>
          <feBlend mode="normal" in="SourceGraphic" in2="effect1_Shadow" result="shape"/></filter><linearGradient id="linear_1" x1="50%" y1="100%" x2="51%" y2="0%" gradientUnits="objectBoundingBox"><stop offset="0" stop-color="#ACCBEE" stop-opacity="1" /><stop offset="1" stop-color="#E7F0FD" stop-opacity="1" /></linearGradient><filter id="filter_4" x="52" y="254" width="404" height="204" filterUnits="userSpaceOnUse" color-interpolation-filters="sRGB"><feFlood flood-opacity="0" result="BackgroundImageFix"/>
          <feColorMatrix in="SourceAlpha" type="matrix" values="0 0 0 0 0 0 0 0 0 0 0 0 0 0 0 0 0 0 127 0"/>
          <feOffset dx="0" dy="0"/>
          <feGaussianBlur stdDeviation="1"/>
          <feColorMatrix type="matrix" values="0 0 0 0 0 0 0 0 0 0 0 0 0 0 0 0 0 0 0.5 0"/>
          <feBlend mode="normal" in2="BackgroundImageFix" result="effect1_Shadow"/>
          <feBlend mode="normal" in="SourceGraphic" in2="effect1_Shadow" result="shape"/></filter><filter id="filter_12" x="-7" y="-7" width="276" height="156" filterUnits="userSpaceOnUse" color-interpolation-filters="sRGB"><feFlood flood-opacity="0" result="BackgroundImageFix"/>
          <feColorMatrix in="SourceAlpha" type="matrix" values="0 0 0 0 0 0 0 0 0 0 0 0 0 0 0 0 0 0 127 0"/>
          <feOffset dx="0" dy="-2"/>
          <feGaussianBlur stdDeviation="3.5"/>
          <feColorMatrix type="matrix" values="0 0 0 0 0 0 0 0 0 0 0 0 0 0 0 0 0 0 0.5 0"/>
          <feBlend mode="normal" in2="BackgroundImageFix" result="effect1_Shadow"/>
          <feBlend mode="normal" in="SourceGraphic" in2="effect1_Shadow" result="shape"/></filter><linearGradient id="linear_2" x1="50%" y1="100%" x2="51%" y2="0%" gradientUnits="objectBoundingBox"><stop offset="0" stop-color="#F5F9FF" stop-opacity="1" /><stop offset="1" stop-color="#E7F0FD" stop-opacity="1" /></linearGradient><filter id="filter_14" x="-6" y="220" width="521" height="79" filterUnits="userSpaceOnUse" color-interpolation-filters="sRGB"><feFlood flood-opacity="0" result="BackgroundImageFix"/>
          <feColorMatrix in="SourceAlpha" type="matrix" values="0 0 0 0 0 0 0 0 0 0 0 0 0 0 0 0 0 0 127 0"/>
          <feOffset dx="0" dy="0"/>
          <feGaussianBlur stdDeviation="2"/>
          <feColorMatrix type="matrix" values="0 0 0 0 0 0 0 0 0 0 0 0 0 0 0 0 0 0 0.5 0"/>
          <feBlend mode="normal" in2="BackgroundImageFix" result="effect1_Shadow"/>
          <feBlend mode="normal" in="SourceGraphic" in2="effect1_Shadow" result="shape"/></filter><rect id="path_0" x="0" y="0" width="112.00125" height="112" /></defs><g opacity="1" transform="translate(2 0)  rotate(0 256 256)"><g id="矩形 1" filter="url(#filter_2)"><path id="矩形 1" fill-rule="evenodd" fill="url(#linear_0)" transform="translate(62.5 56)  rotate(0 191.5 100)" opacity="1" d="M0,200L383,200L383,18.000000000000004C383,13.226103182888199 381.10357687342247,8.647732750706759 377.72792206135784,5.272077938642134C374.3522672492932,1.8964231265775098 369.7738968171118,-1.0658141036401503e-14 365,-7.105427357601002e-15L18.000000000000004,0C13.226103182888211,-3.552713678800501e-15 8.647732750706767,1.8964231265775169 5.272077938642141,5.272077938642143C1.8964231265775169,8.64773275070677 -3.552713678800501e-15,13.226103182888213 -3.552713678800501e-15,18.000000000000007L0,200Z " /></g><g id="矩形 2" filter="url(#filter_4)"><path id="矩形 2" fill-rule="evenodd" fill="url(#linear_1)" transform="translate(54 256)  rotate(0 200 100)" opacity="1" d="M1.1021821192326181e-15,182C0,186.7738968171118 1.8964231265775169,191.35226724929322 5.272077938642141,194.72792206135784C8.647732750706766,198.10357687342247 13.226103182888204,200 17.999999999999996,200L382,200C391.94112549695427,200 400,191.94112549695427 400,182L400,0L0,0Z " /></g><g opacity="1" transform="translate(125 82)  rotate(0 131 71)"><g id="形状" filter="url(#filter_12)"><path id="形状" fill-rule="evenodd" style="fill:#FFFFFF" transform="translate(0 0)  rotate(0 131 71)" opacity="1" d="M218.17529,3.05216c0.30871,1.07545 0.17678,2.23009 -0.36413,3.20765l-15.89229,28.66011l-5.07931,9.08019c1.53303,0.83359 3.06078,1.68301 4.58061,2.54971c1.51983,0.8667 3.01856,1.76075 4.49881,2.68072c26.4203,16.46009 46.00135,41.4792 54.22059,70.7699c2.26656,7.79598 3.51462,15.85254 3.72043,23.96957h-263.86c0.20318,-8.12711 1.45123,-16.19375 3.72043,-23.9998c8.20077,-29.26046 27.80029,-54.27957 54.19948,-70.73966c1.47234,-0.95452 2.96578,-1.86009 4.48034,-2.72103c1.51192,-0.8595 3.04758,-1.69597 4.59908,-2.5094l-5.0793,-9.08019l-15.81049,-28.60972c-1.06072,-2.02997 -0.30872,-4.53649 1.69398,-5.64794c2.00269,-1.11 4.52783,-0.41895 5.68618,1.55776l16.10074,28.99988l5.07931,9.15073c1.59899,-0.6709 3.21909,-1.34036 4.8603,-2.00118c1.63329,-0.64642 3.28241,-1.26549 4.95001,-1.86009c30.74232,-10.81791 64.25782,-10.81791 95.00015,0c1.67023,0.59027 3.3088,1.24102 4.95001,1.86009c1.63857,0.62051 3.25867,1.28997 4.8603,2.00118l5.07931,-9.15073l16.10074,-29.05027c0.74144,-1.34036 2.15573,-2.17251 3.68876,-2.16963c0.70187,0.00432 1.39054,0.18716 2.00006,0.52981c0.98156,0.53988 1.70454,1.44833 2.01589,2.52235z M83.92,92.00001c0,-6.62736 -5.37264,-12 -12,-12c-6.62736,0 -12,5.37264 -12,12c0,6.62736 5.37264,12 12,12c6.62736,0 12,-5.37264 12,-12z M203.92,92.00001c0,-6.62736 -5.37264,-12 -12,-12c-6.62736,0 -12,5.37264 -12,12c0,6.62736 5.37264,12 12,12c6.62736,0 12,-5.37264 12,-12z " /></g></g><g id="矩形 3" filter="url(#filter_14)"><path id="矩形 3" fill-rule="evenodd" fill="url(#linear_2)" transform="translate(-2 224)  rotate(0 256.5 35.5)" opacity="1" d="M10.232250952256361,58.04214068005196C8.332096543530504,60.4484473304004 7.974403633993694,63.72909499409552 9.31135108229396,66.48834670298234C10.648298530594225,69.24759841186918 13.444667959828811,71 16.510756424389392,71L496.4892435756106,71C499.5553320401712,71.00000000000001 502.3517014694058,69.24759841186919 503.6886489177061,66.48834670298237C505.02559636600637,63.72909499409554 504.66790345646956,60.448447330400406 502.7677490477437,58.04214068005195L459.3366707748275,3.042140680051967C457.81952964784824,1.1208721943948827 455.50622367478263,2.6645352591003757e-15 453.0581653026945,-8.881784197001252e-16L59.941834697305566,0C57.4937763252174,-1.7763568394002505e-15 55.180470352151815,1.1208721943948738 53.663329225172546,3.042140680051956Z " /></g><path id="文本 1" fill-rule="evenodd" style="fill:#707070" transform="translate(73.66015625 302.90625)  rotate(0 34.046875 10.546875)" opacity="0.8" d="M0.59 0L0.59 21.09L0 21.09L0 0L0.59 0ZM1.76 0L4.1 0L4.1 21.09L1.76 21.09L1.76 0ZM4.45 21.09L4.45 0L5.03 0L5.03 21.09L4.45 21.09ZM5.86 0L5.27 0L5.27 21.09L5.86 21.09L5.86 0ZM6.79 0L7.96 0L7.96 21.09L6.79 21.09L6.79 0ZM8.54 0L8.54 21.09L8.89 21.09L8.89 0L8.54 0ZM10.06 21.09L9.13 21.09L9.13 0L10.06 0L10.06 21.09ZM12.99 0L12.99 21.09L12.41 21.09L12.41 0L12.99 0ZM13.34 0L13.34 21.09L13.58 21.09L13.58 0L13.34 0ZM13.92 0L13.92 21.09L14.16 21.09L14.16 0L13.92 0ZM16.27 0L15.09 0L15.09 21.09L16.27 21.09L16.27 0ZM17.44 21.09L16.85 21.09L16.85 0L17.44 0L17.44 21.09ZM18.37 21.09L17.78 21.09L17.78 0L18.37 0L18.37 21.09ZM20.71 21.09L21.88 21.09L21.88 0L20.71 0L20.71 21.09ZM22.23 21.09L22.23 0L22.47 0L22.47 21.09L22.23 21.09ZM23.05 21.09L23.4 21.09L23.4 0L23.05 0L23.05 21.09ZM25.74 21.09L26.33 21.09L26.33 0L25.74 0L25.74 21.09ZM26.91 21.09L26.91 0L26.67 0L26.67 21.09L26.91 21.09ZM27.26 0L27.26 21.09L27.5 21.09L27.5 0L27.26 0ZM29.02 21.09L29.02 0L27.84 0L27.84 21.09L29.02 21.09ZM30.77 21.09L30.19 21.09L30.19 0L30.77 0L30.77 21.09ZM31.7 21.09L31.12 21.09L31.12 0L31.7 0L31.7 21.09ZM33.46 0L33.46 21.09L35.22 21.09L35.22 0L33.46 0ZM35.56 0L35.56 21.09L35.8 21.09L35.8 0L35.56 0ZM36.73 21.09L36.15 21.09L36.15 0L36.73 0L36.73 21.09ZM36.98 21.09L36.98 0L37.32 0L37.32 21.09L36.98 21.09ZM38.49 0L40.01 0L40.01 21.09L38.49 21.09L38.49 0ZM40.84 0L40.59 0L40.59 21.09L40.84 21.09L40.84 0ZM41.18 21.09L42.35 21.09L42.35 0L41.18 0L41.18 21.09ZM43.52 21.09L43.52 0L44.11 0L44.11 21.09L43.52 21.09ZM45.04 21.09L45.04 0L44.45 0L44.45 21.09L45.04 21.09ZM46.8 0L46.8 21.09L46.21 21.09L46.21 0L46.8 0ZM47.97 0L47.97 21.09L48.9 21.09L48.9 0L47.97 0ZM50.31 21.09L49.48 21.09L49.48 0L50.31 0L50.31 21.09ZM50.66 21.09L51.24 21.09L51.24 0L50.66 0L50.66 21.09ZM51.83 21.09L51.83 0L53 0L53 21.09L51.83 21.09ZM53.34 21.09L53.34 0L53.93 0L53.93 21.09L53.34 21.09ZM57.45 0L55.1 0L55.1 21.09L57.45 21.09L57.45 0ZM57.79 0L57.79 21.09L58.03 21.09L58.03 0L57.79 0ZM58.62 21.09L58.37 21.09L58.37 0L58.62 0L58.62 21.09ZM60.13 21.09L62.23 21.09L62.23 0L60.13 0L60.13 21.09ZM62.48 0L62.48 21.09L62.82 21.09L62.82 0L62.48 0ZM63.65 0L63.06 0L63.06 21.09L63.65 21.09L63.65 0ZM63.99 0L64.58 0L64.58 21.09L63.99 21.09L63.99 0ZM68.09 0L65.75 0L65.75 21.09L68.09 21.09L68.09 0Z" /><path  id="文本 1" style="stroke:#FFFFFF; stroke-width:0.1; stroke-opacity:1; stroke-dasharray:0 0" transform="translate(73.66015625 302.90625)  rotate(0 34.046875 10.546875)" d="M57.79,0L57.79,21.09L58.37,21.09L58.37,0L57.79,0Z M63.65,0L63.06,0L63.06,21.09L63.65,21.09L63.65,0Z M62.48,21.09L62.48,0L60.13,0L60.13,21.09L62.48,21.09Z M16.27,0L15.09,0L15.09,21.09L16.27,21.09L16.27,0Z M16.85,21.09L17.44,21.09L17.44,0L16.85,0L16.85,21.09Z M13.34,0L13.34,21.09L13.92,21.09L13.92,0L13.34,0Z M51.83,0L51.83,21.09L53,21.09L53,0L51.83,0Z M50.66,21.09L51.24,21.09L51.24,0L50.66,0L50.66,21.09Z M49.48,21.09L49.48,0L48.9,0L48.9,21.09L49.48,21.09Z M41.18,21.09L42.35,21.09L42.35,0L41.18,0L41.18,21.09Z M43.52,0L43.52,21.09L44.11,21.09L44.11,0L43.52,0Z M40.59,21.09L40.59,0L40.01,0L40.01,21.09L40.59,21.09Z M27.26,0L26.67,0L26.67,21.09L27.26,21.09L27.26,0Z M29.02,21.09L29.02,0L27.84,0L27.84,21.09L29.02,21.09Z M30.19,21.09L30.77,21.09L30.77,0L30.19,0L30.19,21.09Z M68.09,0L65.75,0L65.75,21.09L68.09,21.09L68.09,0Z M64.58,0L63.99,0L63.99,21.09L64.58,21.09L64.58,0Z M62.82,0L62.23,0L62.23,21.09L62.82,21.09L62.82,0Z M22.23,0L22.23,21.09L23.4,21.09L23.4,0L22.23,0Z M25.74,21.09L26.33,21.09L26.33,0L25.74,0L25.74,21.09Z M27.5,0L26.91,0L26.91,21.09L27.5,21.09L27.5,0Z M35.56,0L35.56,21.09L36.15,21.09L36.15,0L35.56,0Z M36.73,21.09L37.32,21.09L37.32,0L36.73,0L36.73,21.09Z M40.84,0L38.49,0L38.49,21.09L40.84,21.09L40.84,0Z M17.78,21.09L18.37,21.09L18.37,0L17.78,0L17.78,21.09Z M20.71,21.09L21.88,21.09L21.88,0L20.71,0L20.71,21.09Z M23.05,0L22.47,0L22.47,21.09L23.05,21.09L23.05,0Z M36.98,21.09L36.98,0L35.8,0L35.8,21.09L36.98,21.09Z M31.12,21.09L31.7,21.09L31.7,0L31.12,0L31.12,21.09Z M33.46,0L33.46,21.09L35.22,21.09L35.22,0L33.46,0Z M13.58,0L13.58,21.09L14.16,21.09L14.16,0L13.58,0Z M10.06,21.09L10.06,0L8.89,0L8.89,21.09L10.06,21.09Z M12.99,21.09L12.99,0L12.41,0L12.41,21.09L12.99,21.09Z M47.97,0L47.97,21.09L50.31,21.09L50.31,0L47.97,0Z M46.8,21.09L46.8,0L46.21,0L46.21,21.09L46.8,21.09Z M45.04,21.09L45.04,0L44.45,0L44.45,21.09L45.04,21.09Z M4.1,0L1.76,0L1.76,21.09L4.1,21.09L4.1,0Z M5.86,0L5.27,0L5.27,21.09L5.86,21.09L5.86,0Z M0.59,21.09L0.59,0L0,0L0,21.09L0.59,21.09Z M57.45,0L55.1,0L55.1,21.09L57.45,21.09L57.45,0Z M53.34,0L53.34,21.09L53.93,21.09L53.93,0L53.34,0Z M58.62,0L58.03,0L58.03,21.09L58.62,21.09L58.62,0Z M7.96,0L6.79,0L6.79,21.09L7.96,21.09L7.96,0Z M8.54,0L8.54,21.09L9.13,21.09L9.13,0L8.54,0Z M4.45,0L4.45,21.09L5.03,21.09L5.03,0L4.45,0Z " /><g opacity="1" transform="translate(200 322.99875)  rotate(0 56.000625 56)"><mask id="bg-mask" fill="white"><use xlink:href="#path_0"></use></mask><g mask="url(#bg-mask)" ><path id="分组 1" fill-rule="evenodd" style="fill:#707070" transform="translate(0 0)  rotate(0 56.000625 56)" opacity="1" d="M42.82,105.41C42.82,109.05 45.78,112 49.41,112L62.59,112C66.22,112 69.18,109.05 69.18,105.41L69.18,96.76C71.35,96.05 73.46,95.17 75.49,94.13L81.62,100.26C84.19,102.83 88.37,102.83 90.94,100.26L100.26,90.94C101.5,89.7 102.19,88.04 102.19,86.28C102.19,84.52 101.5,82.87 100.26,81.62L94.13,75.5C95.17,73.46 96.05,71.35 96.76,69.18L105.41,69.18C109.05,69.18 112,66.22 112,62.59L112,49.41C112,45.78 109.05,42.83 105.41,42.83L96.76,42.83C96.06,40.66 95.18,38.55 94.13,36.51L100.26,30.38C102.82,27.81 102.82,23.63 100.26,21.06L90.94,11.74C88.37,9.18 84.19,9.17 81.62,11.74L75.49,17.87C73.46,16.83 71.35,15.95 69.18,15.24L69.18,6.59C69.18,2.95 66.22,0 62.59,0L49.41,0C45.78,0 42.83,2.96 42.83,6.59L42.83,15.24C40.66,15.94 38.55,16.82 36.51,17.87L30.38,11.74C27.81,9.18 23.63,9.17 21.06,11.74L11.75,21.06C9.18,23.63 9.18,27.81 11.75,30.38L17.87,36.51C16.83,38.55 15.95,40.66 15.25,42.83L6.59,42.83C2.96,42.83 0,45.78 0,49.41L0,62.59C0,66.22 2.95,69.18 6.59,69.18L15.24,69.18C15.95,71.35 16.83,73.46 17.87,75.5L11.74,81.62C10.5,82.87 9.81,84.52 9.81,86.28C9.81,88.04 10.5,89.7 11.74,90.94L21.06,100.26C23.63,102.83 27.81,102.83 30.38,100.26L36.5,94.13C38.54,95.17 40.65,96.05 42.82,96.76L42.82,105.41Z M105.41,62.59L105.41,49.41L94.28,49.41C92.78,49.41 91.47,48.4 91.09,46.94C90.25,43.68 88.95,40.54 87.21,37.6C86.45,36.31 86.66,34.66 87.72,33.6L95.6,25.72L86.28,16.4L78.4,24.28C77.34,25.35 75.69,25.55 74.4,24.79C71.46,23.05 68.32,21.75 65.06,20.91C63.6,20.53 62.59,19.22 62.59,17.72L62.59,6.59L49.41,6.59L49.41,17.72C49.41,19.22 48.4,20.53 46.94,20.91C43.68,21.75 40.54,23.05 37.6,24.79C36.31,25.55 34.66,25.35 33.6,24.28L25.72,16.4L16.4,25.72L24.28,33.6C25.34,34.66 25.55,36.31 24.79,37.61C23.05,40.55 21.75,43.69 20.91,46.94C20.53,48.4 19.22,49.42 17.72,49.42L6.59,49.42L6.59,62.59L17.72,62.59C19.22,62.59 20.53,63.61 20.91,65.06C21.75,68.32 23.05,71.46 24.79,74.4C25.55,75.7 25.34,77.34 24.28,78.41L16.4,86.28L25.72,95.6L33.6,87.72C34.21,87.1 35.05,86.76 35.93,86.76C36.5,86.76 37.08,86.91 37.6,87.22C40.54,88.95 43.69,90.26 46.94,91.1C48.4,91.47 49.41,92.78 49.41,94.29L49.41,105.41L62.59,105.41L62.59,94.29C62.59,92.78 63.61,91.47 65.06,91.1C68.32,90.26 71.46,88.95 74.4,87.22C75.69,86.45 77.34,86.66 78.4,87.72L86.28,95.6L95.6,86.28L87.72,78.41C86.66,77.34 86.45,75.7 87.21,74.4C88.95,71.46 90.26,68.32 91.09,65.06C91.47,63.61 92.78,62.59 94.28,62.59L105.41,62.59Z " /><path  id="分组 1" style="stroke:#FFFFFF; stroke-width:1; stroke-opacity:1; stroke-dasharray:0 0" transform="translate(0 0)  rotate(0 56.000625 56)" d="M42.82,105.41C42.82,109.05 45.78,112 49.41,112L62.59,112C66.22,112 69.18,109.05 69.18,105.41L69.18,96.76C71.35,96.05 73.46,95.17 75.49,94.13L81.62,100.26C84.19,102.83 88.37,102.83 90.94,100.26L100.26,90.94C101.5,89.7 102.19,88.04 102.19,86.28C102.19,84.52 101.5,82.87 100.26,81.62L94.13,75.5C95.17,73.46 96.05,71.35 96.76,69.18L105.41,69.18C109.05,69.18 112,66.22 112,62.59L112,49.41C112,45.78 109.05,42.83 105.41,42.83L96.76,42.83C96.06,40.66 95.18,38.55 94.13,36.51L100.26,30.38C102.82,27.81 102.82,23.63 100.26,21.06L90.94,11.74C88.37,9.18 84.19,9.17 81.62,11.74L75.49,17.87C73.46,16.83 71.35,15.95 69.18,15.24L69.18,6.59C69.18,2.95 66.22,0 62.59,0L49.41,0C45.78,0 42.83,2.96 42.83,6.59L42.83,15.24C40.66,15.94 38.55,16.82 36.51,17.87L30.38,11.74C27.81,9.18 23.63,9.17 21.06,11.74L11.75,21.06C9.18,23.63 9.18,27.81 11.75,30.38L17.87,36.51C16.83,38.55 15.95,40.66 15.25,42.83L6.59,42.83C2.96,42.83 0,45.78 0,49.41L0,62.59C0,66.22 2.95,69.18 6.59,69.18L15.24,69.18C15.95,71.35 16.83,73.46 17.87,75.5L11.74,81.62C10.5,82.87 9.81,84.52 9.81,86.28C9.81,88.04 10.5,89.7 11.74,90.94L21.06,100.26C23.63,102.83 27.81,102.83 30.38,100.26L36.5,94.13C38.54,95.17 40.65,96.05 42.82,96.76L42.82,105.41Z M105.41,62.59L105.41,49.41L94.28,49.41C92.78,49.41 91.47,48.4 91.09,46.94C90.25,43.68 88.95,40.54 87.21,37.6C86.45,36.31 86.66,34.66 87.72,33.6L95.6,25.72L86.28,16.4L78.4,24.28C77.34,25.35 75.69,25.55 74.4,24.79C71.46,23.05 68.32,21.75 65.06,20.91C63.6,20.53 62.59,19.22 62.59,17.72L62.59,6.59L49.41,6.59L49.41,17.72C49.41,19.22 48.4,20.53 46.94,20.91C43.68,21.75 40.54,23.05 37.6,24.79C36.31,25.55 34.66,25.35 33.6,24.28L25.72,16.4L16.4,25.72L24.28,33.6C25.34,34.66 25.55,36.31 24.79,37.61C23.05,40.55 21.75,43.69 20.91,46.94C20.53,48.4 19.22,49.42 17.72,49.42L6.59,49.42L6.59,62.59L17.72,62.59C19.22,62.59 20.53,63.61 20.91,65.06C21.75,68.32 23.05,71.46 24.79,74.4C25.55,75.7 25.34,77.34 24.28,78.41L16.4,86.28L25.72,95.6L33.6,87.72C34.21,87.1 35.05,86.76 35.93,86.76C36.5,86.76 37.08,86.91 37.6,87.22C40.54,88.95 43.69,90.26 46.94,91.1C48.4,91.47 49.41,92.78 49.41,94.29L49.41,105.41L62.59,105.41L62.59,94.29C62.59,92.78 63.61,91.47 65.06,91.1C68.32,90.26 71.46,88.95 74.4,87.22C75.69,86.45 77.34,86.66 78.4,87.72L86.28,95.6L95.6,86.28L87.72,78.41C86.66,77.34 86.45,75.7 87.21,74.4C88.95,71.46 90.26,68.32 91.09,65.06C91.47,63.61 92.78,62.59 94.28,62.59L105.41,62.59Z " /><path id="分组 2" fill-rule="evenodd" style="fill:#707070" transform="translate(32.94125 32.943749999999994)  rotate(0 23.058750000000003 23.058125000000004)" opacity="1" d="M23.06,0C10.34,0 0,10.34 0,23.06C0,35.77 10.34,46.12 23.06,46.12C35.77,46.12 46.12,35.77 46.12,23.06C46.12,10.34 35.77,0 23.06,0Z M23.06,39.53C32.14,39.53 39.53,32.14 39.53,23.06C39.53,13.98 32.14,6.59 23.06,6.59C13.98,6.59 6.59,13.98 6.59,23.06C6.59,32.14 13.98,39.53 23.06,39.53Z " /><path  id="分组 2" style="stroke:#FFFFFF; stroke-width:1; stroke-opacity:1; stroke-dasharray:0 0" transform="translate(32.94125 32.943749999999994)  rotate(0 23.058750000000003 23.058125000000004)" d="M23.06,0C10.34,0 0,10.34 0,23.06C0,35.77 10.34,46.12 23.06,46.12C35.77,46.12 46.12,35.77 46.12,23.06C46.12,10.34 35.77,0 23.06,0Z M23.06,39.53C32.14,39.53 39.53,32.14 39.53,23.06C39.53,13.98 32.14,6.59 23.06,6.59C13.98,6.59 6.59,13.98 6.59,23.06C6.59,32.14 13.98,39.53 23.06,39.53Z " /><path id="分组 3" fill-rule="evenodd" style="fill:#707070" transform="translate(46.117500000000014 46.120000000000005)  rotate(0 9.882499999999997 9.881874999999997)" opacity="1" d="M9.88,0C4.43,0 0,4.43 0,9.88C0,15.33 4.43,19.76 9.88,19.76C15.33,19.76 19.76,15.33 19.76,9.88C19.76,4.43 15.33,0 9.88,0Z M9.88,13.18C11.7,13.18 13.18,11.7 13.18,9.88C13.18,8.07 11.7,6.59 9.88,6.59C8.07,6.59 6.59,8.07 6.59,9.88C6.59,11.7 8.07,13.18 9.88,13.18Z " /><path  id="分组 3" style="stroke:#FFFFFF; stroke-width:1; stroke-opacity:1; stroke-dasharray:0 0" transform="translate(46.117500000000014 46.120000000000005)  rotate(0 9.882499999999997 9.881874999999997)" d="M9.88,0C4.43,0 0,4.43 0,9.88C0,15.33 4.43,19.76 9.88,19.76C15.33,19.76 19.76,15.33 19.76,9.88C19.76,4.43 15.33,0 9.88,0Z M9.88,13.18C11.7,13.18 13.18,11.7 13.18,9.88C13.18,8.07 11.7,6.59 9.88,6.59C8.07,6.59 6.59,8.07 6.59,9.88C6.59,11.7 8.07,13.18 9.88,13.18Z " /></g></g></g></svg>