<svg xmlns="http://www.w3.org/2000/svg" xmlns:xlink="http://www.w3.org/1999/xlink" width="514" height="512" viewBox="0 0 514 512" fill="none"><defs><linearGradient id="linear_0" x1="96.37%" y1="96.011%" x2="2.8400000000000003%" y2="0%" gradientUnits="objectBoundingBox"><stop offset="0" stop-color="#00BAAD" stop-opacity="1" /><stop offset="1" stop-color="#43CF7C" stop-opacity="1" /></linearGradient><filter id="filter_2" x="60.5" y="54" width="387" height="204" filterUnits="userSpaceOnUse" color-interpolation-filters="sRGB"><feFlood flood-opacity="0" result="BackgroundImageFix"/>
          <feColorMatrix in="SourceAlpha" type="matrix" values="0 0 0 0 0 0 0 0 0 0 0 0 0 0 0 0 0 0 127 0"/>
          <feOffset dx="0" dy="0"/>
          <feGaussianBlur stdDeviation="1"/>
          <feColorMatrix type="matrix" values="0 0 0 0 0 0 0 0 0 0 0 0 0 0 0 0 0 0 0.5 0"/>
          <feBlend mode="normal" in2="BackgroundImageFix" result="effect1_Shadow"/>
          <feBlend mode="normal" in="SourceGraphic" in2="effect1_Shadow" result="shape"/></filter><linearGradient id="linear_1" x1="50%" y1="100%" x2="51%" y2="0%" gradientUnits="objectBoundingBox"><stop offset="0" stop-color="#ACCBEE" stop-opacity="1" /><stop offset="1" stop-color="#E7F0FD" stop-opacity="1" /></linearGradient><filter id="filter_4" x="52" y="254" width="404" height="204" filterUnits="userSpaceOnUse" color-interpolation-filters="sRGB"><feFlood flood-opacity="0" result="BackgroundImageFix"/>
          <feColorMatrix in="SourceAlpha" type="matrix" values="0 0 0 0 0 0 0 0 0 0 0 0 0 0 0 0 0 0 127 0"/>
          <feOffset dx="0" dy="0"/>
          <feGaussianBlur stdDeviation="1"/>
          <feColorMatrix type="matrix" values="0 0 0 0 0 0 0 0 0 0 0 0 0 0 0 0 0 0 0.5 0"/>
          <feBlend mode="normal" in2="BackgroundImageFix" result="effect1_Shadow"/>
          <feBlend mode="normal" in="SourceGraphic" in2="effect1_Shadow" result="shape"/></filter><filter id="filter_12" x="-7" y="-7" width="276" height="156" filterUnits="userSpaceOnUse" color-interpolation-filters="sRGB"><feFlood flood-opacity="0" result="BackgroundImageFix"/>
          <feColorMatrix in="SourceAlpha" type="matrix" values="0 0 0 0 0 0 0 0 0 0 0 0 0 0 0 0 0 0 127 0"/>
          <feOffset dx="0" dy="-2"/>
          <feGaussianBlur stdDeviation="3.5"/>
          <feColorMatrix type="matrix" values="0 0 0 0 0 0 0 0 0 0 0 0 0 0 0 0 0 0 0.5 0"/>
          <feBlend mode="normal" in2="BackgroundImageFix" result="effect1_Shadow"/>
          <feBlend mode="normal" in="SourceGraphic" in2="effect1_Shadow" result="shape"/></filter><linearGradient id="linear_2" x1="50%" y1="100%" x2="51%" y2="0%" gradientUnits="objectBoundingBox"><stop offset="0" stop-color="#F5F9FF" stop-opacity="1" /><stop offset="1" stop-color="#E7F0FD" stop-opacity="1" /></linearGradient><filter id="filter_14" x="-6" y="220" width="521" height="79" filterUnits="userSpaceOnUse" color-interpolation-filters="sRGB"><feFlood flood-opacity="0" result="BackgroundImageFix"/>
          <feColorMatrix in="SourceAlpha" type="matrix" values="0 0 0 0 0 0 0 0 0 0 0 0 0 0 0 0 0 0 127 0"/>
          <feOffset dx="0" dy="0"/>
          <feGaussianBlur stdDeviation="2"/>
          <feColorMatrix type="matrix" values="0 0 0 0 0 0 0 0 0 0 0 0 0 0 0 0 0 0 0.5 0"/>
          <feBlend mode="normal" in2="BackgroundImageFix" result="effect1_Shadow"/>
          <feBlend mode="normal" in="SourceGraphic" in2="effect1_Shadow" result="shape"/></filter><rect id="path_0" x="0" y="0" width="119.99219988153558" height="119.9950733704817" /></defs><g opacity="1" transform="translate(2 0)  rotate(0 256 256)"><g id="矩形 1" filter="url(#filter_2)"><path id="矩形 1" fill-rule="evenodd" fill="url(#linear_0)" transform="translate(62.5 56)  rotate(0 191.5 100)" opacity="1" d="M0,200L383,200L383,18.000000000000004C383,13.226103182888199 381.10357687342247,8.647732750706759 377.72792206135784,5.272077938642134C374.3522672492932,1.8964231265775098 369.7738968171118,-1.0658141036401503e-14 365,-7.105427357601002e-15L18.000000000000004,0C13.226103182888211,-3.552713678800501e-15 8.647732750706767,1.8964231265775169 5.272077938642141,5.272077938642143C1.8964231265775169,8.64773275070677 -3.552713678800501e-15,13.226103182888213 -3.552713678800501e-15,18.000000000000007L0,200Z " /></g><g id="矩形 2" filter="url(#filter_4)"><path id="矩形 2" fill-rule="evenodd" fill="url(#linear_1)" transform="translate(54 256)  rotate(0 200 100)" opacity="1" d="M1.1021821192326181e-15,182C0,186.7738968171118 1.8964231265775169,191.35226724929322 5.272077938642141,194.72792206135784C8.647732750706766,198.10357687342247 13.226103182888204,200 17.999999999999996,200L382,200C391.94112549695427,200 400,191.94112549695427 400,182L400,0L0,0Z " /></g><g opacity="1" transform="translate(125 82)  rotate(0 131 71)"><g id="形状" filter="url(#filter_12)"><path id="形状" fill-rule="evenodd" style="fill:#FFFFFF" transform="translate(0 0)  rotate(0 131 71)" opacity="1" d="M218.17529,3.05216c0.30871,1.07545 0.17678,2.23009 -0.36413,3.20765l-15.89229,28.66011l-5.07931,9.08019c1.53303,0.83359 3.06078,1.68301 4.58061,2.54971c1.51983,0.8667 3.01856,1.76075 4.49881,2.68072c26.4203,16.46009 46.00135,41.4792 54.22059,70.7699c2.26656,7.79598 3.51462,15.85254 3.72043,23.96957h-263.86c0.20318,-8.12711 1.45123,-16.19375 3.72043,-23.9998c8.20077,-29.26046 27.80029,-54.27957 54.19948,-70.73966c1.47234,-0.95452 2.96578,-1.86009 4.48034,-2.72103c1.51192,-0.8595 3.04758,-1.69597 4.59908,-2.5094l-5.0793,-9.08019l-15.81049,-28.60972c-1.06072,-2.02997 -0.30872,-4.53649 1.69398,-5.64794c2.00269,-1.11 4.52783,-0.41895 5.68618,1.55776l16.10074,28.99988l5.07931,9.15073c1.59899,-0.6709 3.21909,-1.34036 4.8603,-2.00118c1.63329,-0.64642 3.28241,-1.26549 4.95001,-1.86009c30.74232,-10.81791 64.25782,-10.81791 95.00015,0c1.67023,0.59027 3.3088,1.24102 4.95001,1.86009c1.63857,0.62051 3.25867,1.28997 4.8603,2.00118l5.07931,-9.15073l16.10074,-29.05027c0.74144,-1.34036 2.15573,-2.17251 3.68876,-2.16963c0.70187,0.00432 1.39054,0.18716 2.00006,0.52981c0.98156,0.53988 1.70454,1.44833 2.01589,2.52235z M83.92,92.00001c0,-6.62736 -5.37264,-12 -12,-12c-6.62736,0 -12,5.37264 -12,12c0,6.62736 5.37264,12 12,12c6.62736,0 12,-5.37264 12,-12z M203.92,92.00001c0,-6.62736 -5.37264,-12 -12,-12c-6.62736,0 -12,5.37264 -12,12c0,6.62736 5.37264,12 12,12c6.62736,0 12,-5.37264 12,-12z " /></g></g><g id="矩形 3" filter="url(#filter_14)"><path id="矩形 3" fill-rule="evenodd" fill="url(#linear_2)" transform="translate(-2 224)  rotate(0 256.5 35.5)" opacity="1" d="M10.232250952256361,58.04214068005196C8.332096543530504,60.4484473304004 7.974403633993694,63.72909499409552 9.31135108229396,66.48834670298234C10.648298530594225,69.24759841186918 13.444667959828811,71 16.510756424389392,71L496.4892435756106,71C499.5553320401712,71.00000000000001 502.3517014694058,69.24759841186919 503.6886489177061,66.48834670298237C505.02559636600637,63.72909499409554 504.66790345646956,60.448447330400406 502.7677490477437,58.04214068005195L459.3366707748275,3.042140680051967C457.81952964784824,1.1208721943948827 455.50622367478263,2.6645352591003757e-15 453.0581653026945,-8.881784197001252e-16L59.941834697305566,0C57.4937763252174,-1.7763568394002505e-15 55.180470352151815,1.1208721943948738 53.663329225172546,3.042140680051956Z " /></g><path id="文本 1" fill-rule="evenodd" style="fill:#707070" transform="translate(78.10546875 302.90625)  rotate(0 29.6015625 10.546875)" opacity="0.8" d="M0 21.09L0 0L1.17 0L1.17 21.09L0 21.09ZM3.52 0L3.52 21.09L1.76 21.09L1.76 0L3.52 0ZM4.1 21.09L4.45 21.09L4.45 0L4.1 0L4.1 21.09ZM5.62 0L5.62 21.09L5.03 21.09L5.03 0L5.62 0ZM5.86 21.09L5.86 0L6.79 0L6.79 21.09L5.86 21.09ZM7.96 21.09L7.96 0L8.55 0L8.55 21.09L7.96 21.09ZM8.89 21.09L8.89 0L10.06 0L10.06 21.09L8.89 21.09ZM12.41 0L12.99 0L12.99 21.09L12.41 21.09L12.41 0ZM13.34 0L13.34 21.09L13.58 21.09L13.58 0L13.34 0ZM14.16 21.09L13.92 21.09L13.92 0L14.16 0L14.16 21.09ZM16.27 21.09L15.09 21.09L15.09 0L16.27 0L16.27 21.09ZM17.44 21.09L17.44 0L16.85 0L16.85 21.09L17.44 21.09ZM18.37 21.09L17.78 21.09L17.78 0L18.37 0L18.37 21.09ZM21.88 21.09L21.88 0L20.71 0L20.71 21.09L21.88 21.09ZM22.47 21.09L22.23 21.09L22.23 0L22.47 0L22.47 21.09ZM23.4 21.09L23.4 0L23.05 0L23.05 21.09L23.4 21.09ZM26.33 0L26.33 21.09L25.74 21.09L25.74 0L26.33 0ZM26.67 21.09L26.67 0L26.91 0L26.91 21.09L26.67 21.09ZM27.26 21.09L27.5 21.09L27.5 0L27.26 0L27.26 21.09ZM27.84 21.09L29.02 21.09L29.02 0L27.84 0L27.84 21.09ZM30.77 0L30.77 21.09L30.19 21.09L30.19 0L30.77 0ZM31.12 0L31.12 21.09L31.7 21.09L31.7 0L31.12 0ZM32.88 0L33.46 0L33.46 21.09L32.88 21.09L32.88 0ZM34.63 0L35.56 0L35.56 21.09L34.63 21.09L34.63 0ZM36.98 0L36.15 0L36.15 21.09L36.98 21.09L36.98 0ZM39.66 21.09L39.66 0L37.32 0L37.32 21.09L39.66 21.09ZM40.84 21.09L40.84 0L40.01 0L40.01 21.09L40.84 21.09ZM41.18 0L41.18 21.09L41.42 21.09L41.42 0L41.18 0ZM43.52 21.09L43.52 0L44.11 0L44.11 21.09L43.52 21.09ZM44.7 21.09L44.7 0L44.45 0L44.45 21.09L44.7 21.09ZM45.63 21.09L45.63 0L45.28 0L45.28 21.09L45.63 21.09ZM48.55 21.09L47.97 21.09L47.97 0L48.55 0L48.55 21.09ZM49.14 0L48.9 0L48.9 21.09L49.14 21.09L49.14 0ZM49.48 0L49.48 21.09L49.73 21.09L49.73 0L49.48 0ZM51.24 0L50.07 0L50.07 21.09L51.24 21.09L51.24 0ZM52.41 0L53 0L53 21.09L52.41 21.09L52.41 0ZM53.93 21.09L53.34 21.09L53.34 0L53.93 0L53.93 21.09ZM55.1 21.09L55.69 21.09L55.69 0L55.1 0L55.1 21.09ZM56.86 21.09L59.2 21.09L59.2 0L56.86 0L56.86 21.09Z" /><path  id="文本 1" style="stroke:#FFFFFF; stroke-width:0.1; stroke-opacity:1; stroke-dasharray:0 0" transform="translate(78.10546875 302.90625)  rotate(0 29.6015625 10.546875)" d="M26.91,0L26.91,21.09L27.5,21.09L27.5,0L26.91,0Z M23.4,21.09L23.4,0L22.23,0L22.23,21.09L23.4,21.09Z M26.33,21.09L26.33,0L25.74,0L25.74,21.09L26.33,21.09Z M36.98,0L34.63,0L34.63,21.09L36.98,21.09L36.98,0Z M33.46,0L32.88,0L32.88,21.09L33.46,21.09L33.46,0Z M31.12,0L31.12,21.09L31.7,21.09L31.7,0L31.12,0Z M17.78,21.09L18.37,21.09L18.37,0L17.78,0L17.78,21.09Z M21.88,21.09L21.88,0L20.71,0L20.71,21.09L21.88,21.09Z M23.05,0L22.47,0L22.47,21.09L23.05,21.09L23.05,0Z M49.48,0L48.9,0L48.9,21.09L49.48,21.09L49.48,0Z M53,0L52.41,0L52.41,21.09L53,21.09L53,0Z M51.24,0L50.07,0L50.07,21.09L51.24,21.09L51.24,0Z M12.99,0L12.41,0L12.41,21.09L12.99,21.09L12.99,0Z M14.16,0L13.58,0L13.58,21.09L14.16,21.09L14.16,0Z M8.89,0L8.89,21.09L10.06,21.09L10.06,0L8.89,0Z M56.86,21.09L59.2,21.09L59.2,0L56.86,0L56.86,21.09Z M53.34,21.09L53.93,21.09L53.93,0L53.34,0L53.34,21.09Z M55.1,21.09L55.69,21.09L55.69,0L55.1,0L55.1,21.09Z M43.52,0L43.52,21.09L44.11,21.09L44.11,0L43.52,0Z M45.28,21.09L45.28,0L44.7,0L44.7,21.09L45.28,21.09Z M41.18,0L40.01,0L40.01,21.09L41.18,21.09L41.18,0Z M35.56,0L35.56,21.09L36.15,21.09L36.15,0L35.56,0Z M40.84,0L40.84,21.09L41.42,21.09L41.42,0L40.84,0Z M39.66,21.09L39.66,0L37.32,0L37.32,21.09L39.66,21.09Z M0,0L0,21.09L1.17,21.09L1.17,0L0,0Z M5.86,0L4.1,0L4.1,21.09L5.86,21.09L5.86,0Z M3.52,21.09L3.52,0L1.76,0L1.76,21.09L3.52,21.09Z M5.62,21.09L6.79,21.09L6.79,0L5.62,0L5.62,21.09Z M7.96,0L7.96,21.09L8.55,21.09L8.55,0L7.96,0Z M5.03,0L4.45,0L4.45,21.09L5.03,21.09L5.03,0Z M30.77,21.09L30.77,0L30.19,0L30.19,21.09L30.77,21.09Z M27.84,21.09L29.02,21.09L29.02,0L27.84,0L27.84,21.09Z M26.67,0L26.67,21.09L27.26,21.09L27.26,0L26.67,0Z M17.44,21.09L17.44,0L16.85,0L16.85,21.09L17.44,21.09Z M15.09,21.09L16.27,21.09L16.27,0L15.09,0L15.09,21.09Z M13.34,0L13.34,21.09L13.92,21.09L13.92,0L13.34,0Z M47.97,21.09L48.55,21.09L48.55,0L47.97,0L47.97,21.09Z M45.63,21.09L45.63,0L44.45,0L44.45,21.09L45.63,21.09Z M49.14,21.09L49.73,21.09L49.73,0L49.14,0L49.14,21.09Z " /><g opacity="1" transform="translate(196.04500122074728 317.99999534076704)  rotate(0 59.99609994076779 59.99753668524085)"><mask id="bg-mask" fill="white"><use xlink:href="#path_0"></use></mask><g mask="url(#bg-mask)" ><path id="分组 1" fill-rule="evenodd" style="fill:#707070" transform="translate(0 0)  rotate(0 59.99609994076779 59.99753668524085)" opacity="1" d="M65.05,39.15C64.32,41.29 61.13,46.54 56.13,48.49C56.13,48.49 52.91,48.92 53.52,51.45C53.52,51.45 54.36,54.82 57.97,52.91C57.97,52.91 67.14,48.35 71.63,37.25C71.63,37.25 74.4,36.18 77.92,36.85C77.92,36.85 72.38,53.95 61.12,59.43C61.12,59.43 50.18,65.27 52.35,51.48C52.35,51.48 53.77,38.1 74.78,29.25C74.78,29.25 88.03,22.92 96.23,19.93C91.07,15.2 85.03,11.53 78.46,9.13C76.61,8.46 74.73,8.17 72.86,7.71C61.64,15.39 51.74,30.49 48.34,40.81C48.34,40.81 42.26,55.96 50.94,65.28C50.94,65.28 59.01,72.91 70.41,61.91C70.41,61.91 77.64,55.98 82.03,38.24C82.03,38.24 83.66,39.17 83.76,39.52C83.86,39.87 82.84,54.08 76.32,63.98C76.32,63.98 69.32,75.87 56.62,74.53C43.92,73.21 37.42,62.84 33.67,53.96C30.88,47.33 28.94,31.51 31.39,14.33C21.57,20.49 13.54,29.67 9.26,41.43C6.37,49.37 5.65,57.5 6.46,65.37C17.22,73.04 42.95,88.84 65.54,82.69C80.87,78.51 84.32,64.13 84.32,64.13C87.94,53.55 85.1,40.69 85.1,40.69C102.7,72.6 78.38,92.03 78.38,92.03C65.61,103.98 46.68,107.32 32.18,106.2C35.14,108.01 38.27,109.52 41.52,110.72C69.54,120.93 100.52,106.46 110.72,78.42C115.44,65.41 114.69,51.84 109.92,39.92C107.43,39.21 104.63,38.34 101.71,37.16C101.71,37.16 88.7,33.11 80.2,34.15C75.76,34.59 71.37,35.49 67.11,36.83C67.11,36.83 65.77,37 65.05,39.15Z M54.49,0.28C44.55,1.07 39.7,4.14 39.99,3.59C23.74,9.39 9.99,21.87 3.63,39.37C-7.7,70.54 8.35,105.01 39.47,116.35C70.61,127.7 105.02,111.63 116.36,80.46C127.69,49.3 111.64,14.83 80.51,3.48C71.89,0.33 63.06,-0.52 54.49,0.28Z " /><path  id="分组 1" style="stroke:#FFFFFF; stroke-width:1; stroke-opacity:1; stroke-dasharray:0 0" transform="translate(0 0)  rotate(0 59.99609994076779 59.99753668524085)" d="M65.05,39.15C64.32,41.29 61.13,46.54 56.13,48.49C56.13,48.49 52.91,48.92 53.52,51.45C53.52,51.45 54.36,54.82 57.97,52.91C57.97,52.91 67.14,48.35 71.63,37.25C71.63,37.25 74.4,36.18 77.92,36.85C77.92,36.85 72.38,53.95 61.12,59.43C61.12,59.43 50.18,65.27 52.35,51.48C52.35,51.48 53.77,38.1 74.78,29.25C74.78,29.25 88.03,22.92 96.23,19.93C91.07,15.2 85.03,11.53 78.46,9.13C76.61,8.46 74.73,8.17 72.86,7.71C61.64,15.39 51.74,30.49 48.34,40.81C48.34,40.81 42.26,55.96 50.94,65.28C50.94,65.28 59.01,72.91 70.41,61.91C70.41,61.91 77.64,55.98 82.03,38.24C82.03,38.24 83.66,39.17 83.76,39.52C83.86,39.87 82.84,54.08 76.32,63.98C76.32,63.98 69.32,75.87 56.62,74.53C43.92,73.21 37.42,62.84 33.67,53.96C30.88,47.33 28.94,31.51 31.39,14.33C21.57,20.49 13.54,29.67 9.26,41.43C6.37,49.37 5.65,57.5 6.46,65.37C17.22,73.04 42.95,88.84 65.54,82.69C80.87,78.51 84.32,64.13 84.32,64.13C87.94,53.55 85.1,40.69 85.1,40.69C102.7,72.6 78.38,92.03 78.38,92.03C65.61,103.98 46.68,107.32 32.18,106.2C35.14,108.01 38.27,109.52 41.52,110.72C69.54,120.93 100.52,106.46 110.72,78.42C115.44,65.41 114.69,51.84 109.92,39.92C107.43,39.21 104.63,38.34 101.71,37.16C101.71,37.16 88.7,33.11 80.2,34.15C75.76,34.59 71.37,35.49 67.11,36.83C67.11,36.83 65.77,37 65.05,39.15Z M54.49,0.28C44.55,1.07 39.7,4.14 39.99,3.59C23.74,9.39 9.99,21.87 3.63,39.37C-7.7,70.54 8.35,105.01 39.47,116.35C70.61,127.7 105.02,111.63 116.36,80.46C127.69,49.3 111.64,14.83 80.51,3.48C71.89,0.33 63.06,-0.52 54.49,0.28Z " /></g></g></g></svg>